HIERARCHY
ROOT hip
{
	OFFSET 0.000000 0.000000 0.000000 
	CHANNELS 6 Xposition Yposition Zposition Xrotation Zrotation Yrotation
	JOINT abdomen
	{
		OFFSET 0.000000 3.402643 0.000000 
		CHANNELS 3 Xrotation Zrotation Yrotation
		JOINT chest
		{
			OFFSET 0.000000 8.438565 -0.680529 
			CHANNELS 3 Xrotation Zrotation Yrotation
			JOINT neck
			{
				OFFSET 0.000000 10.207942 -0.272212 
				CHANNELS 3 Xrotation Zrotation Yrotation
				JOINT head
				{
					OFFSET 0.000000 3.130431 0.000000 
					CHANNELS 3 Xrotation Zrotation Yrotation
					End Site
					{
						OFFSET 0.000000 3.130435 0.000000 
					}
				}
			}
			JOINT lCollar
			{
				OFFSET 3.470700 6.669187 -0.816635 
				CHANNELS 3 Yrotation Zrotation Xrotation
				JOINT lShldr
				{
					OFFSET 3.198488 0.000000 0.000000 
					CHANNELS 3 Zrotation Yrotation Xrotation
					JOINT lForeArm
					{
						OFFSET 10.139888 0.000000 0.000000 
						CHANNELS 3 Yrotation Zrotation Xrotation
						JOINT lHand
						{
							OFFSET 8.370511 0.000000 0.000000 
							CHANNELS 3 Zrotation Yrotation Xrotation
							End Site
							{
								OFFSET 4.083176 0.000000 0.000000 
							}
						}
					}
				}
			}
			JOINT rCollar
			{
				OFFSET -3.470700 6.669187 -0.816635 
				CHANNELS 3 Yrotation Zrotation Xrotation
				JOINT rShldr
				{
					OFFSET -3.198488 0.000000 0.000000 
					CHANNELS 3 Zrotation Yrotation Xrotation
					JOINT rForeArm
					{
						OFFSET -10.139888 0.000000 0.000000 
						CHANNELS 3 Yrotation Zrotation Xrotation
						JOINT rHand
						{
							OFFSET -8.370511 0.000000 0.000000 
							CHANNELS 3 Zrotation Yrotation Xrotation
							End Site
							{
								OFFSET -4.083176 0.000000 0.000000 
							}
						}
					}
				}
			}
		}
	}
	JOINT lThigh
	{
		OFFSET 5.308129 -1.633274 1.361059 
		CHANNELS 3 Xrotation Zrotation Yrotation
		JOINT lShin
		{
			OFFSET -2.041588 -20.007561 0.000000 
			CHANNELS 3 Xrotation Zrotation Yrotation
			JOINT lFoot
			{
				OFFSET 0.000000 -19.190928 -1.224953 
				CHANNELS 3 Xrotation Yrotation Zrotation
				End Site
				{
					OFFSET 0.000000 -2.449906 4.627600 
				}
			}
		}
	}
	JOINT rThigh
	{
		OFFSET -5.308129 -1.633274 1.361059 
		CHANNELS 3 Xrotation Zrotation Yrotation
		JOINT rShin
		{
			OFFSET 2.041588 -20.007561 0.000000 
			CHANNELS 3 Xrotation Zrotation Yrotation
			JOINT rFoot
			{
				OFFSET 0.000000 -19.190928 -1.224953 
				CHANNELS 3 Xrotation Yrotation Zrotation
				End Site
				{
					OFFSET 0.000000 -2.449906 4.627600 
				}
			}
		}
	}
}
MOTION
Frames: 11
Frame Time: 0.033333
3.070409 39.366951 70.379494 -12.138672 4.042969 -164.531250 24.570313 14.492187 -4.636228 -8.544922 4.179688 -10.106710 -19.492189 -1.337891 4.326172 18.105467 -7.070312 3.388672 6.152344 19.824217 0.820313 50.908215 -119.892578 -57.557293 -48.105469 -3.271484 -35.986328 1.318359 25.683504 -0.200847 4.208984 -4.140625 0.127658 68.955078 20.634766 -5.976563 70.683594 3.583984 -60.800781 -9.492188 -17.822266 2.213809 -5.604848 17.437485 6.002298 57.020428 0.065622 -3.502858 -9.169834 11.646847 -4.745402 -62.079468 -13.935426 26.788721 38.230572 0.521131 2.721326 14.759993 17.133080 3.032900 
2.288083 39.555969 71.609520 -13.359374 4.570313 -170.497269 23.544920 15.332031 -5.673828 -8.369141 3.476563 -11.162107 -18.886719 0.615234 7.920027 17.568357 -8.828124 7.080078 5.693360 20.703127 1.061000 57.548824 -122.636719 -64.941406 -52.968754 -3.007812 -30.800779 0.439453 26.728514 -0.546875 2.636719 -4.306607 0.205812 70.390625 13.740235 -2.185179 75.000000 3.603516 -63.017578 -10.800780 -17.197266 2.516645 -4.580170 14.657187 9.730958 55.087708 -0.419689 -3.140654 -11.928393 14.439133 -3.716008 -65.011749 -9.348736 26.360760 41.551228 0.182314 2.738083 10.672568 17.284355 3.879678 
1.600691 39.454746 72.731300 165.410156 175.771484 4.229236 23.017576 15.888671 -6.982422 -8.378906 2.070312 -12.568359 -18.613281 2.568359 11.513670 17.392578 -10.234374 10.771485 5.068360 21.005859 0.953531 61.992191 -125.146484 -68.777519 -57.314453 -2.763672 -23.564449 -2.626953 28.369143 -1.962891 2.109375 -4.306641 0.166749 70.742188 5.585938 0.567357 79.824219 3.632813 -66.406250 -12.656250 -16.142578 2.900390 -4.569644 12.514795 14.464804 55.438671 -0.404925 -3.161185 -16.246325 16.988844 -1.732395 -67.279373 -5.666659 25.869703 49.984764 -0.043149 3.208905 5.764561 20.212980 5.643785 
1.003758 39.140560 73.700226 164.707031 176.650391 0.010336 22.656248 16.494141 -8.457032 -8.037109 0.664063 -14.150277 -19.912109 3.808594 14.961586 17.568359 -10.761719 14.461068 4.384766 20.986328 1.044922 62.197289 -126.347656 -65.974663 -60.214844 -2.509766 -18.837891 -5.400391 29.208982 -3.466797 1.933594 -3.955078 0.136719 70.859375 -2.841797 2.656250 84.482422 3.505859 -69.932236 -15.488282 -15.292968 3.623047 -5.106911 10.854931 18.805550 56.112663 0.065157 -3.469881 -20.010239 17.722088 -0.500432 -68.448723 -2.708923 24.840931 59.454659 -0.794862 3.762545 2.719525 22.196949 6.009819 
0.452174 38.707973 74.551727 163.828140 177.880859 -3.691045 22.255861 17.646484 -11.227509 -7.001954 -1.279297 -14.833986 -22.783205 5.576171 18.212893 17.910158 -10.761719 17.986456 4.082031 20.615236 0.976563 59.892590 -126.777344 -59.021496 -62.675781 -2.333985 -15.097655 -9.160157 30.849607 -5.625000 2.109375 -3.076172 0.117712 70.458992 -10.869141 5.007926 89.091797 3.583984 -74.990845 -19.931641 -13.183594 4.101563 -5.975903 9.390849 22.077444 57.546974 -0.267292 -3.189862 -22.655487 17.268211 0.116527 -68.626831 -0.774660 23.810425 66.982391 -1.343993 3.727441 -0.766674 18.906122 7.329952 
-0.066756 38.217709 75.333710 163.300797 179.121094 -7.382663 22.783205 18.544924 -12.438301 -5.791016 -3.398438 -16.572844 -26.171877 7.851562 21.074219 17.910156 -11.113280 21.679689 3.769531 20.419922 0.947266 57.626961 -127.626945 -52.087811 -64.472656 -2.207031 -11.591420 -13.261719 30.810547 -7.763672 2.451172 -1.503906 0.058850 70.214844 -18.261719 7.021484 91.914063 3.466797 -79.355469 -23.007813 -10.332030 3.759766 -7.382342 8.386827 25.388493 59.839962 -0.101940 -3.217984 -23.822647 15.905947 0.020996 -67.925156 0.632665 23.199572 69.985977 -1.197639 3.773606 -8.082541 10.882247 8.637792 
-0.565249 37.702766 76.058098 -17.050779 -0.361328 168.388611 23.652344 19.433596 -13.649095 -4.755859 -5.166016 -18.125877 -29.199219 9.755859 23.408205 16.689455 -11.103515 24.812572 3.271484 20.400389 0.966797 56.601585 -129.003906 -47.654072 -65.888672 -2.226563 -11.845324 -14.658204 30.332033 -8.427734 2.626953 -0.097656 0.000000 70.703125 -23.984375 8.794859 92.617188 3.427734 -82.266212 -24.013672 -7.246094 2.801503 -8.974072 7.888864 29.060617 62.808926 0.248726 -3.329755 -25.080307 15.038845 -0.173862 -67.962982 1.715270 23.411835 68.035919 -1.353764 3.769465 -15.415778 8.257052 9.371021 
-1.032902 37.220356 76.710663 -17.402346 -1.416016 163.818359 25.244141 20.175781 -14.355470 -3.535156 -6.582031 -19.326174 -31.513670 11.445313 25.246077 14.941407 -10.751954 27.537237 2.773438 20.732422 0.963340 56.435558 -130.498047 -45.661724 -66.132813 -2.128906 -10.908202 -16.503906 29.003906 -9.096825 2.978516 1.484375 -0.078125 71.806641 -27.714842 9.121093 92.705078 3.496094 -85.147087 -24.169924 -5.742188 2.119141 -10.175102 7.468648 32.193352 65.078377 0.394812 -3.698220 -26.217567 14.219645 -0.123874 -69.027916 3.287837 25.076317 65.769508 -0.991412 3.554355 -18.976105 10.152349 10.711003 
-1.425094 36.776646 77.239151 -17.578125 -1.767578 159.775391 27.011719 20.654295 -14.765624 -2.490235 -7.470703 -20.009768 -32.753910 12.207032 26.259766 13.193360 -10.214844 29.246313 2.265625 21.240234 0.966797 57.167973 -131.708984 -45.974091 -66.005852 -2.109375 -9.569954 -17.812500 27.978516 -9.497372 3.339844 2.539063 -0.156683 73.271484 -30.146484 8.671876 92.832031 3.251953 -87.207031 -24.990234 -5.078125 1.884766 -11.082485 7.514911 34.105076 67.008171 0.745795 -3.567689 -26.608250 13.666488 -0.239537 -71.166405 5.777233 25.061424 65.234367 -1.158192 3.604325 -17.939709 12.520408 11.342000 
-1.733114 36.411427 77.592400 -17.412109 -1.767578 156.445023 28.408203 20.966797 -15.224609 -1.445313 -8.007813 -20.693359 -33.466797 12.412110 26.779442 11.796875 -9.335938 30.087893 1.679688 21.933594 1.119399 57.158218 -132.031250 -45.876392 -65.781250 -2.080078 -9.023438 -19.306639 27.382813 -10.034571 3.339844 3.417969 -0.214844 73.837891 -31.357422 9.062501 92.773438 3.378906 -88.359375 -25.410156 -5.634766 2.177735 -11.414319 7.279921 35.155033 68.237328 0.725765 -3.644827 -27.602135 13.076207 -0.097121 -72.556557 7.156595 24.543566 64.890923 -0.992002 3.528308 -16.248837 15.071127 11.479702 
-1.923586 36.125298 77.746353 -16.699219 -1.416016 154.853271 29.619139 21.064453 -15.566406 -0.400391 -8.027345 -21.201170 -33.281250 12.070312 26.972656 10.751953 -8.457032 30.232937 1.171875 22.265625 1.152344 56.582050 -131.982422 -45.212337 -64.921875 -1.933594 -7.197266 -20.253904 26.064455 -10.210553 3.515625 3.769531 -0.244783 73.759766 -32.011719 10.795604 92.451172 3.339844 -89.199791 -25.498047 -6.191407 2.509766 -11.082162 7.337496 35.704056 69.308426 0.930398 -3.576774 -28.763563 13.128036 -0.124343 -72.846352 8.169652 23.774612 65.244911 -1.011679 3.713779 -14.267570 16.037207 11.060694 
